{"asset":{"version":"2.0","generator":"Blockbench 4.12.2 glTF exporter"},"scenes":[{"nodes":[2,7],"name":"blockbench_export"}],"scene":0,"nodes":[{"translation":[1.9518437045829365e-16,2.4891826698689856,-1.0823394434755589],"name":"Head"},{"name":"Anenome","children":[0]},{"translation":[-1.9518437045829365e-16,1.5108173301310146,-0.04266055652444112],"name":"Anenome","mesh":0,"children":[1],"skin":0},{"translation":[0.5937500000000001,-0.11752632533288399,-0.8331404428461207],"name":"Right"},{"translation":[-0.5937499999999999,-0.11752632533288399,-0.8956404428461207],"name":"Leftpec"},{"translation":[1.6499147727068297e-16,-0.11127632533288434,0.8606095571538781],"name":"Tail"},{"name":"Clownfish","children":[3,4,5]},{"translation":[-1.511136894628685e-16,6.867526325332884,-0.9793595571538793],"name":"Clownfish","mesh":1,"children":[6],"skin":1}],"bufferViews":[{"buffer":0,"byteOffset":0,"byteLength":37008,"target":34962,"byteStride":12},{"buffer":0,"byteOffset":37008,"byteLength":37008,"target":34962,"byteStride":12},{"buffer":0,"byteOffset":74016,"byteLength":24672,"target":34962,"byteStride":8},{"buffer":0,"byteOffset":98688,"byteLength":24672,"target":34962,"byteStride":8},{"buffer":0,"byteOffset":123360,"byteLength":49344,"target":34962,"byteStride":16},{"buffer":0,"byteOffset":172704,"byteLength":720,"target":34963},{"buffer":0,"byteOffset":173424,"byteLength":8448,"target":34963},{"buffer":0,"byteOffset":181872,"byteLength":2232,"target":34962,"byteStride":12},{"buffer":0,"byteOffset":184104,"byteLength":2232,"target":34962,"byteStride":12},{"buffer":0,"byteOffset":186336,"byteLength":1488,"target":34962,"byteStride":8},{"buffer":0,"byteOffset":187824,"byteLength":1488,"target":34962,"byteStride":8},{"buffer":0,"byteOffset":189312,"byteLength":2976,"target":34962,"byteStride":16},{"buffer":0,"byteOffset":192288,"byteLength":504,"target":34963},{"buffer":0,"byteOffset":192792,"byteLength":128},{"buffer":0,"byteOffset":192920,"byteLength":256},{"buffer":0,"byteOffset":193176,"byteLength":188},{"buffer":0,"byteOffset":193364,"byteLength":752},{"buffer":0,"byteOffset":194116,"byteLength":180},{"buffer":0,"byteOffset":194296,"byteLength":540},{"buffer":0,"byteOffset":194836,"byteLength":184},{"buffer":0,"byteOffset":195020,"byteLength":552},{"buffer":0,"byteOffset":195572,"byteLength":4},{"buffer":0,"byteOffset":195576,"byteLength":16},{"buffer":0,"byteOffset":195592,"byteLength":180},{"buffer":0,"byteOffset":195772,"byteLength":540},{"buffer":0,"byteOffset":196312,"byteLength":180},{"buffer":0,"byteOffset":196492,"byteLength":540},{"buffer":0,"byteOffset":197032,"byteLength":188},{"buffer":0,"byteOffset":197220,"byteLength":752},{"buffer":0,"byteOffset":197972,"byteLength":8},{"buffer":0,"byteOffset":197980,"byteLength":24},{"buffer":0,"byteOffset":198004,"byteLength":8},{"buffer":0,"byteOffset":198012,"byteLength":24},{"buffer":0,"byteOffset":198036,"byteLength":180},{"buffer":0,"byteOffset":198216,"byteLength":720},{"buffer":0,"byteOffset":198936,"byteLength":188},{"buffer":0,"byteOffset":199124,"byteLength":752},{"buffer":0,"byteOffset":199876,"byteLength":188},{"buffer":0,"byteOffset":200064,"byteLength":752},{"buffer":0,"byteOffset":200816,"byteLength":60},{"buffer":0,"byteOffset":200876,"byteLength":240},{"buffer":0,"byteOffset":201116,"byteLength":108},{"buffer":0,"byteOffset":201224,"byteLength":324},{"buffer":0,"byteOffset":201548,"byteLength":108},{"buffer":0,"byteOffset":201656,"byteLength":324},{"buffer":0,"byteOffset":201980,"byteLength":84},{"buffer":0,"byteOffset":202064,"byteLength":336},{"buffer":0,"byteOffset":202400,"byteLength":4},{"buffer":0,"byteOffset":202404,"byteLength":12},{"buffer":0,"byteOffset":202416,"byteLength":4},{"buffer":0,"byteOffset":202420,"byteLength":12},{"buffer":0,"byteOffset":202432,"byteLength":104},{"buffer":0,"byteOffset":202536,"byteLength":416},{"buffer":0,"byteOffset":202952,"byteLength":104},{"buffer":0,"byteOffset":203056,"byteLength":312},{"buffer":0,"byteOffset":203368,"byteLength":108},{"buffer":0,"byteOffset":203476,"byteLength":324},{"buffer":0,"byteOffset":203800,"byteLength":108},{"buffer":0,"byteOffset":203908,"byteLength":432},{"buffer":0,"byteOffset":204340,"byteLength":104},{"buffer":0,"byteOffset":204444,"byteLength":312},{"buffer":0,"byteOffset":204756,"byteLength":108},{"buffer":0,"byteOffset":204864,"byteLength":432},{"buffer":0,"byteOffset":205296,"byteLength":104},{"buffer":0,"byteOffset":205400,"byteLength":312},{"buffer":0,"byteOffset":205712,"byteLength":100},{"buffer":0,"byteOffset":205812,"byteLength":400}],"buffers":[{"byteLength":206212,"uri":"data:application/octet-stream;base64,"}],"accessors":[{"bufferView":0,"componentType":5126,"count":3084,"max":[3.3412468433380127,4.598954200744629,2.410982131958008],"min":[-3.3100783824920654,-1.614087462425232,-4.267002582550049],"type":"VEC3"},{"bufferView":1,"componentType":5126,"count":3084,"max":[0.9989665746688843,0.9995589852333069,0.9918921589851379],"min":[-0.9251617193222046,-0.9992430806159973,-0.9819082617759705],"type":"VEC3"},{"bufferView":2,"componentType":5126,"count":3084,"max":[0.96875,0.9555519223213196],"min":[0,0],"type":"VEC2"},{"bufferView":3,"componentType":5123,"count":3084,"max":[0,1,0,0],"min":[0,0,0,0],"type":"VEC4"},{"bufferView":4,"componentType":5126,"count":3084,"max":[0,1,0,0],"min":[0,1,0,0],"type":"VEC4"},{"bufferView":5,"componentType":5123,"count":360,"max":[267],"min":[0],"type":"SCALAR"},{"bufferView":6,"componentType":5123,"count":4224,"max":[3083],"min":[268],"type":"SCALAR"},{"bufferView":7,"componentType":5126,"count":186,"max":[0.8630464673042297,1.3658937215805054,1.9528475999832153],"min":[-0.8630464673042297,-1.3899558782577515,-1.964390516281128],"type":"VEC3"},{"bufferView":8,"componentType":5126,"count":186,"max":[1,0.9484407305717468,0.9656763076782227],"min":[-0.9902680516242981,-0.9328817129135132,-0.8893877863883972],"type":"VEC3"},{"bufferView":9,"componentType":5126,"count":186,"max":[0.6529293060302734,0.6640625],"min":[0.0007316406117752194,0],"type":"VEC2"},{"bufferView":10,"componentType":5123,"count":186,"max":[0,3,0,0],"min":[0,0,0,0],"type":"VEC4"},{"bufferView":11,"componentType":5126,"count":186,"max":[0,1,0,0],"min":[0,1,0,0],"type":"VEC4"},{"bufferView":12,"componentType":5123,"count":252,"max":[185],"min":[0],"type":"SCALAR"},{"bufferView":13,"componentType":5126,"count":2,"max":[1,0,0,0,0,1,0,0,0,0,1,0,0,0,1.0823394060134888,1],"min":[1,0,0,0,0,1,0,0,0,0,1,0,-1.951843696044298e-16,-2.489182710647583,0,1],"type":"MAT4"},{"bufferView":14,"componentType":5126,"count":4,"max":[1,0,0,0,0,1,0,0,0,0,1,0,0.59375,0.11752632260322571,0.8956404328346252,1],"min":[1,0,0,0,0,1,0,0,0,0,1,0,-0.59375,0,-0.8606095314025879,1],"type":"MAT4"},{"bufferView":15,"componentType":5126,"count":47,"max":[2.5416667461395264],"min":[0],"type":"SCALAR"},{"bufferView":16,"componentType":5126,"count":47,"max":[0.09337310492992401,0,0,1],"min":[-0.039250537753105164,0,0,0.995631217956543],"type":"VEC4"},{"bufferView":17,"componentType":5126,"count":45,"max":[2.5416667461395264],"min":[0],"type":"SCALAR"},{"bufferView":18,"componentType":5126,"count":45,"max":[-1.5111369534504177e-16,7.250217437744141,-0.9793595671653748],"min":[-1.5111369534504177e-16,6.151473522186279,-0.9793595671653748],"type":"VEC3"},{"bufferView":19,"componentType":5126,"count":46,"max":[2.5416667461395264],"min":[0],"type":"SCALAR"},{"bufferView":20,"componentType":5126,"count":46,"max":[1.159999966621399,1.0649000406265259,1],"min":[0.9025999903678894,0.8500000238418579,1],"type":"VEC3"},{"bufferView":21,"componentType":5126,"count":1,"max":[0],"min":[0],"type":"SCALAR"},{"bufferView":22,"componentType":5126,"count":1,"max":[0,0,0,1],"min":[0,0,0,1],"type":"VEC4"},{"bufferView":23,"componentType":5126,"count":45,"max":[2.5416667461395264],"min":[0],"type":"SCALAR"},{"bufferView":24,"componentType":5126,"count":45,"max":[-1.951843696044298e-16,1.510817289352417,-0.042660556733608246],"min":[-1.951843696044298e-16,1.4108173847198486,-0.042660556733608246],"type":"VEC3"},{"bufferView":25,"componentType":5126,"count":45,"max":[2.5416667461395264],"min":[0],"type":"SCALAR"},{"bufferView":26,"componentType":5126,"count":45,"max":[1,1,1],"min":[1,0.9399999976158142,1],"type":"VEC3"},{"bufferView":27,"componentType":5126,"count":47,"max":[2.5416667461395264],"min":[0],"type":"SCALAR"},{"bufferView":28,"componentType":5126,"count":47,"max":[0,0.10886687785387039,0,1],"min":[0,0,0,0.9940563440322876],"type":"VEC4"},{"bufferView":29,"componentType":5126,"count":2,"max":[2.5416667461395264],"min":[0],"type":"SCALAR"},{"bufferView":30,"componentType":5126,"count":2,"max":[1.951843696044298e-16,2.489182710647583,-1.0823394060134888],"min":[1.951843696044298e-16,2.489182710647583,-1.0823394060134888],"type":"VEC3"},{"bufferView":31,"componentType":5126,"count":2,"max":[2.5416667461395264],"min":[0],"type":"SCALAR"},{"bufferView":32,"componentType":5126,"count":2,"max":[1,1,1],"min":[1,1,1],"type":"VEC3"},{"bufferView":33,"componentType":5126,"count":45,"max":[2.5416667461395264],"min":[0],"type":"SCALAR"},{"bufferView":34,"componentType":5126,"count":45,"max":[0.10606863349676132,0.3745640218257904,0.0025848199147731066,1],"min":[-0.045190464705228806,-0.28681713342666626,-0.039161622524261475,0.9204896688461304],"type":"VEC4"},{"bufferView":35,"componentType":5126,"count":47,"max":[2.5416667461395264],"min":[0],"type":"SCALAR"},{"bufferView":36,"componentType":5126,"count":47,"max":[0.09242243319749832,0.48567232489585876,0.26785746216773987,1],"min":[-0.2643658220767975,0,-0.09187277406454086,0.8331106901168823],"type":"VEC4"},{"bufferView":37,"componentType":5126,"count":47,"max":[2.5416667461395264],"min":[0],"type":"SCALAR"},{"bufferView":38,"componentType":5126,"count":47,"max":[0.22707749903202057,0.005575770977884531,0.08729982376098633,1],"min":[-0.23639166355133057,-0.4595615565776825,-0.19642373919487,0.8549714088439941],"type":"VEC4"},{"bufferView":39,"componentType":5126,"count":15,"max":[1.4583333730697632],"min":[0],"type":"SCALAR"},{"bufferView":40,"componentType":5126,"count":15,"max":[0.04846237972378731,0,0,1],"min":[-0.0027270736172795296,0,0,0.9988250136375427],"type":"VEC4"},{"bufferView":41,"componentType":5126,"count":27,"max":[1.4583333730697632],"min":[0],"type":"SCALAR"},{"bufferView":42,"componentType":5126,"count":27,"max":[-1.951843696044298e-16,1.7458173036575317,0.17092740535736084],"min":[-1.951843696044298e-16,0.9839365482330322,-1.5764496326446533],"type":"VEC3"},{"bufferView":43,"componentType":5126,"count":27,"max":[1.4583333730697632],"min":[0],"type":"SCALAR"},{"bufferView":44,"componentType":5126,"count":27,"max":[1.0116592645645142,1.236488938331604,1.5654312372207642],"min":[0.7064999938011169,0.6250175833702087,0.8799999952316284],"type":"VEC3"},{"bufferView":45,"componentType":5126,"count":21,"max":[1.2083333730697632],"min":[0],"type":"SCALAR"},{"bufferView":46,"componentType":5126,"count":21,"max":[0,0.9593687057495117,0,1],"min":[0,-0.2798290252685547,0,-1],"type":"VEC4"},{"bufferView":47,"componentType":5126,"count":1,"max":[0],"min":[0],"type":"SCALAR"},{"bufferView":48,"componentType":5126,"count":1,"max":[1.951843696044298e-16,2.489182710647583,-1.0823394060134888],"min":[1.951843696044298e-16,2.489182710647583,-1.0823394060134888],"type":"VEC3"},{"bufferView":49,"componentType":5126,"count":1,"max":[0],"min":[0],"type":"SCALAR"},{"bufferView":50,"componentType":5126,"count":1,"max":[1,1,1],"min":[1,1,1],"type":"VEC3"},{"bufferView":51,"componentType":5126,"count":26,"max":[1.4583333730697632],"min":[0],"type":"SCALAR"},{"bufferView":52,"componentType":5126,"count":26,"max":[0.27563735842704773,0,0,1],"min":[-0.08715574443340302,0,0,0.9612616896629333],"type":"VEC4"},{"bufferView":53,"componentType":5126,"count":26,"max":[1.4583333730697632],"min":[0],"type":"SCALAR"},{"bufferView":54,"componentType":5126,"count":26,"max":[-1.5111369534504177e-16,6.951696395874023,-0.12935955822467804],"min":[-1.5111369534504177e-16,5.261901378631592,-7.331820487976074],"type":"VEC3"},{"bufferView":55,"componentType":5126,"count":27,"max":[1.4583333730697632],"min":[0],"type":"SCALAR"},{"bufferView":56,"componentType":5126,"count":27,"max":[1.773770809173584,1.4909305572509766,1.37004816532135],"min":[1,1,1],"type":"VEC3"},{"bufferView":57,"componentType":5126,"count":27,"max":[1.4583333730697632],"min":[0],"type":"SCALAR"},{"bufferView":58,"componentType":5126,"count":27,"max":[0.3500027656555176,0.6903455257415771,0.20537646114826202,1],"min":[0,-0.04813775420188904,-0.05306649208068848,0.6903455257415771],"type":"VEC4"},{"bufferView":59,"componentType":5126,"count":26,"max":[1.4583333730697632],"min":[0],"type":"SCALAR"},{"bufferView":60,"componentType":5126,"count":26,"max":[1.649999976158142,1.7000000476837158,1],"min":[0.9554184079170227,0.9519890546798706,1],"type":"VEC3"},{"bufferView":61,"componentType":5126,"count":27,"max":[1.4583333730697632],"min":[0],"type":"SCALAR"},{"bufferView":62,"componentType":5126,"count":27,"max":[0,0,0,1],"min":[0,-0.5,0,0.8660253882408142],"type":"VEC4"},{"bufferView":63,"componentType":5126,"count":26,"max":[1.4583333730697632],"min":[0],"type":"SCALAR"},{"bufferView":64,"componentType":5126,"count":26,"max":[1.8600000143051147,1.649999976158142,1],"min":[0.9410150647163391,0.9554184079170227,1],"type":"VEC3"},{"bufferView":65,"componentType":5126,"count":25,"max":[1.4583333730697632],"min":[0],"type":"SCALAR"},{"bufferView":66,"componentType":5126,"count":25,"max":[0.0476098470389843,0.30070579051971436,0,1],"min":[-0.10179535299539566,-0.4385048449039459,-0.08169940859079361,0.8891998529434204],"type":"VEC4"}],"materials":[{"pbrMetallicRoughness":{"metallicFactor":0,"roughnessFactor":1,"baseColorTexture":{"index":0}},"alphaMode":"MASK","alphaCutoff":0.05,"doubleSided":true},{"pbrMetallicRoughness":{"metallicFactor":0,"roughnessFactor":1,"baseColorTexture":{"index":1}},"alphaMode":"MASK","alphaCutoff":0.05,"doubleSided":true},{"pbrMetallicRoughness":{"metallicFactor":0,"roughnessFactor":1,"baseColorTexture":{"index":2}},"alphaMode":"MASK","alphaCutoff":0.05,"doubleSided":true}],"textures":[{"sampler":0,"source":0,"name":"CoralBody"},{"sampler":1,"source":1,"name":"CoralFlowerTexture"},{"sampler":2,"source":2,"name":"ClownfishTexture"}],"samplers":[{"magFilter":9728,"minFilter":9728,"wrapS":33071,"wrapT":33071},{"magFilter":9728,"minFilter":9728,"wrapS":33071,"wrapT":33071},{"magFilter":9728,"minFilter":9728,"wrapS":33071,"wrapT":33071}],"images":[{"mimeType":"image/png","uri":"data:image/png;base64,"},{"mimeType":"image/png","uri":"data:image/png;base64,"},{"mimeType":"image/png","uri":"data:image/png;base64,"}],"meshes":[{"primitives":[{"mode":4,"attributes":{"POSITION":0,"NORMAL":1,"TEXCOORD_0":2,"JOINTS_0":3,"WEIGHTS_0":4},"indices":5,"material":0},{"mode":4,"attributes":{"POSITION":0,"NORMAL":1,"TEXCOORD_0":2,"JOINTS_0":3,"WEIGHTS_0":4},"indices":6,"material":1}]},{"primitives":[{"mode":4,"attributes":{"POSITION":7,"NORMAL":8,"TEXCOORD_0":9,"JOINTS_0":10,"WEIGHTS_0":11},"indices":12,"material":2}]}],"skins":[{"inverseBindMatrices":13,"joints":[1,0],"skeleton":1},{"inverseBindMatrices":14,"joints":[6,3,4,5],"skeleton":6}],"animations":[{"name":"IdleAnimation","samplers":[{"input":15,"output":16,"interpolation":"LINEAR"},{"input":17,"output":18,"interpolation":"LINEAR"},{"input":19,"output":20,"interpolation":"LINEAR"},{"input":21,"output":22,"interpolation":"LINEAR"},{"input":23,"output":24,"interpolation":"LINEAR"},{"input":25,"output":26,"interpolation":"LINEAR"},{"input":27,"output":28,"interpolation":"LINEAR"},{"input":29,"output":30,"interpolation":"LINEAR"},{"input":31,"output":32,"interpolation":"LINEAR"},{"input":33,"output":34,"interpolation":"LINEAR"},{"input":35,"output":36,"interpolation":"LINEAR"},{"input":37,"output":38,"interpolation":"LINEAR"}],"channels":[{"sampler":0,"target":{"node":6,"path":"rotation"}},{"sampler":1,"target":{"node":6,"path":"translation"}},{"sampler":2,"target":{"node":6,"path":"scale"}},{"sampler":3,"target":{"node":1,"path":"rotation"}},{"sampler":4,"target":{"node":1,"path":"translation"}},{"sampler":5,"target":{"node":1,"path":"scale"}},{"sampler":6,"target":{"node":0,"path":"rotation"}},{"sampler":7,"target":{"node":0,"path":"translation"}},{"sampler":8,"target":{"node":0,"path":"scale"}},{"sampler":9,"target":{"node":5,"path":"rotation"}},{"sampler":10,"target":{"node":3,"path":"rotation"}},{"sampler":11,"target":{"node":4,"path":"rotation"}}]},{"name":"AttackAnimation","samplers":[{"input":39,"output":40,"interpolation":"LINEAR"},{"input":41,"output":42,"interpolation":"LINEAR"},{"input":43,"output":44,"interpolation":"LINEAR"},{"input":45,"output":46,"interpolation":"LINEAR"},{"input":47,"output":48,"interpolation":"LINEAR"},{"input":49,"output":50,"interpolation":"LINEAR"},{"input":51,"output":52,"interpolation":"LINEAR"},{"input":53,"output":54,"interpolation":"LINEAR"},{"input":55,"output":56,"interpolation":"LINEAR"},{"input":57,"output":58,"interpolation":"LINEAR"},{"input":59,"output":60,"interpolation":"LINEAR"},{"input":61,"output":62,"interpolation":"LINEAR"},{"input":63,"output":64,"interpolation":"LINEAR"},{"input":65,"output":66,"interpolation":"LINEAR"}],"channels":[{"sampler":0,"target":{"node":1,"path":"rotation"}},{"sampler":1,"target":{"node":1,"path":"translation"}},{"sampler":2,"target":{"node":1,"path":"scale"}},{"sampler":3,"target":{"node":0,"path":"rotation"}},{"sampler":4,"target":{"node":0,"path":"translation"}},{"sampler":5,"target":{"node":0,"path":"scale"}},{"sampler":6,"target":{"node":6,"path":"rotation"}},{"sampler":7,"target":{"node":6,"path":"translation"}},{"sampler":8,"target":{"node":6,"path":"scale"}},{"sampler":9,"target":{"node":3,"path":"rotation"}},{"sampler":10,"target":{"node":3,"path":"scale"}},{"sampler":11,"target":{"node":4,"path":"rotation"}},{"sampler":12,"target":{"node":4,"path":"scale"}},{"sampler":13,"target":{"node":5,"path":"rotation"}}]}]}